<svg width="35" height="35" viewBox="0 0 35 35" fill="none" xmlns="http://www.w3.org/2000/svg">
<g opacity="0.5" clip-path="url(#clip0_291_56)">
<path d="M26.1625 26.1625C23.6696 28.0627 20.6341 29.1154 17.5 29.1666C7.29165 29.1666 1.45831 17.5 1.45831 17.5C3.27232 14.1194 5.7883 11.1659 8.83748 8.83748M14.4375 6.18331C15.4413 5.94835 16.469 5.83089 17.5 5.83331C27.7083 5.83331 33.5416 17.5 33.5416 17.5C32.6564 19.1561 31.6007 20.7152 30.3916 22.1521M20.5916 20.5916C20.1911 21.0215 19.7081 21.3662 19.1715 21.6054C18.6348 21.8445 18.0555 21.9731 17.468 21.9834C16.8806 21.9938 16.2971 21.8857 15.7523 21.6657C15.2076 21.4457 14.7127 21.1181 14.2973 20.7027C13.8818 20.2873 13.5543 19.7924 13.3343 19.2476C13.1142 18.7029 13.0062 18.1194 13.0165 17.5319C13.0269 16.9445 13.1555 16.3652 13.3946 15.8285C13.6337 15.2918 13.9785 14.8088 14.4083 14.4083M1.45831 1.45831L33.5416 33.5416" stroke="#1E1E1E" stroke-width="4" stroke-linecap="round" stroke-linejoin="round"/>
</g>
<defs>
<clipPath id="clip0_291_56">
<rect width="35" height="35" fill="white"/>
</clipPath>
</defs>
</svg>
