<svg width="125" height="125" viewBox="0 0 125 125" fill="none" xmlns="http://www.w3.org/2000/svg">
<path d="M72.9167 10.4167H31.25C28.4874 10.4167 25.8378 11.5142 23.8843 13.4677C21.9308 15.4212 20.8334 18.0707 20.8334 20.8334V104.167C20.8334 106.929 21.9308 109.579 23.8843 111.532C25.8378 113.486 28.4874 114.583 31.25 114.583H93.75C96.5127 114.583 99.1622 113.486 101.116 111.532C103.069 109.579 104.167 106.929 104.167 104.167V41.6667M72.9167 10.4167L104.167 41.6667M72.9167 10.4167V41.6667H104.167M83.3334 67.7084H41.6667M83.3334 88.5418H41.6667M52.0834 46.8751H41.6667" stroke="#1E1E1E" stroke-width="4" stroke-linecap="round" stroke-linejoin="round"/>
</svg>
