<svg width="35" height="35" viewBox="0 0 35 35" fill="none" xmlns="http://www.w3.org/2000/svg">
<path d="M17.5 32.0833C15.5069 32.0833 13.6232 31.7005 11.8489 30.9349C10.0746 30.1693 8.52513 29.1241 7.20048 27.7995C5.87583 26.4748 4.83069 24.9253 4.06506 23.151C3.29944 21.3767 2.91663 19.4931 2.91663 17.5C2.91663 15.4826 3.29944 13.5929 4.06506 11.8307C4.83069 10.0686 5.87583 8.52517 7.20048 7.20052C8.52513 5.87587 10.0746 4.83073 11.8489 4.06511C13.6232 3.29948 15.5069 2.91667 17.5 2.91667C19.5173 2.91667 21.4071 3.29948 23.1692 4.06511C24.9314 4.83073 26.4748 5.87587 27.7994 7.20052C29.1241 8.52517 30.1692 10.0686 30.9349 11.8307C31.7005 13.5929 32.0833 15.4826 32.0833 17.5C32.0833 19.4931 31.7005 21.3767 30.9349 23.151C30.1692 24.9253 29.1241 26.4748 27.7994 27.7995C26.4748 29.1241 24.9314 30.1693 23.1692 30.9349C21.4071 31.7005 19.5173 32.0833 17.5 32.0833ZM17.5 29.0938C18.1319 28.2188 18.6788 27.3073 19.1406 26.3594C19.6024 25.4115 19.9791 24.4028 20.2708 23.3333H14.7291C15.0208 24.4028 15.3975 25.4115 15.8593 26.3594C16.3211 27.3073 16.868 28.2188 17.5 29.0938ZM13.7083 28.5104C13.2708 27.7083 12.888 26.8759 12.5599 26.013C12.2317 25.1502 11.9583 24.2569 11.7395 23.3333H7.43746C8.14232 24.5486 9.0234 25.6059 10.0807 26.5052C11.138 27.4045 12.3472 28.0729 13.7083 28.5104ZM21.2916 28.5104C22.6527 28.0729 23.8619 27.4045 24.9192 26.5052C25.9765 25.6059 26.8576 24.5486 27.5625 23.3333H23.2604C23.0416 24.2569 22.7682 25.1502 22.4401 26.013C22.1119 26.8759 21.7291 27.7083 21.2916 28.5104ZM6.19788 20.4167H11.1562C11.0833 19.9306 11.0286 19.4505 10.9921 18.9766C10.9557 18.5026 10.9375 18.0104 10.9375 17.5C10.9375 16.9896 10.9557 16.4974 10.9921 16.0234C11.0286 15.5495 11.0833 15.0694 11.1562 14.5833H6.19788C6.07635 15.0694 5.9852 15.5495 5.92444 16.0234C5.86367 16.4974 5.83329 16.9896 5.83329 17.5C5.83329 18.0104 5.86367 18.5026 5.92444 18.9766C5.9852 19.4505 6.07635 19.9306 6.19788 20.4167ZM14.0729 20.4167H20.927C21 19.9306 21.0546 19.4505 21.0911 18.9766C21.1276 18.5026 21.1458 18.0104 21.1458 17.5C21.1458 16.9896 21.1276 16.4974 21.0911 16.0234C21.0546 15.5495 21 15.0694 20.927 14.5833H14.0729C14 15.0694 13.9453 15.5495 13.9088 16.0234C13.8724 16.4974 13.8541 16.9896 13.8541 17.5C13.8541 18.0104 13.8724 18.5026 13.9088 18.9766C13.9453 19.4505 14 19.9306 14.0729 20.4167ZM23.8437 20.4167H28.802C28.9236 19.9306 29.0147 19.4505 29.0755 18.9766C29.1362 18.5026 29.1666 18.0104 29.1666 17.5C29.1666 16.9896 29.1362 16.4974 29.0755 16.0234C29.0147 15.5495 28.9236 15.0694 28.802 14.5833H23.8437C23.9166 15.0694 23.9713 15.5495 24.0078 16.0234C24.0442 16.4974 24.0625 16.9896 24.0625 17.5C24.0625 18.0104 24.0442 18.5026 24.0078 18.9766C23.9713 19.4505 23.9166 19.9306 23.8437 20.4167ZM23.2604 11.6667H27.5625C26.8576 10.4514 25.9765 9.3941 24.9192 8.49479C23.8619 7.59549 22.6527 6.92708 21.2916 6.48958C21.7291 7.29167 22.1119 8.12413 22.4401 8.98698C22.7682 9.84983 23.0416 10.7431 23.2604 11.6667ZM14.7291 11.6667H20.2708C19.9791 10.5972 19.6024 9.58854 19.1406 8.64063C18.6788 7.69271 18.1319 6.78125 17.5 5.90625C16.868 6.78125 16.3211 7.69271 15.8593 8.64063C15.3975 9.58854 15.0208 10.5972 14.7291 11.6667ZM7.43746 11.6667H11.7395C11.9583 10.7431 12.2317 9.84983 12.5599 8.98698C12.888 8.12413 13.2708 7.29167 13.7083 6.48958C12.3472 6.92708 11.138 7.59549 10.0807 8.49479C9.0234 9.3941 8.14232 10.4514 7.43746 11.6667Z" fill="#1D1B20"/>
</svg>
