<svg width="1404" height="600" viewBox="0 0 1404 600" fill="none" xmlns="http://www.w3.org/2000/svg">
<g clip-path="url(#clip0_1_906)">
<mask id="mask0_1_906" style="mask-type:luminance" maskUnits="userSpaceOnUse" x="0" y="0" width="1404" height="600">
<path d="M1404 0H0V600H1404V0Z" fill="white"/>
</mask>
<g mask="url(#mask0_1_906)">
<path d="M1590.39 373.452C1417.54 372.588 1257.8 183.516 911.3 181.452C564.793 179.388 405.876 -33.456 232.204 -34.68" stroke="#00A9FF" stroke-width="2"/>
<path d="M1664.02 240.444C1559.32 240.3 1456.15 165.444 1248.27 165.444C1040.39 165.444 1043.67 241.296 832.52 240.444C621.368 239.592 531.887 -46.02 416.764 -53.46" stroke="#00A9FF" stroke-width="2"/>
<path d="M1407.54 308.928C1240.07 308.088 1006.61 127.248 749.588 122.928C492.578 118.608 512.208 -110.196 420.615 -116.58" stroke="#00A9FF" stroke-width="2"/>
<path d="M1587.59 548.604C1486.25 548.46 1386.51 473.604 1185.42 473.604C984.336 473.604 1002.17 559.416 783.25 548.604C564.33 537.792 518.976 7.296 381.079 -39.492" stroke="#00A9FF" stroke-width="2"/>
<path d="M1548.04 444.096C1380.94 443.34 1230.59 268.332 890.858 264.096C551.127 259.86 407.184 -61.476 233.675 -65.952" stroke="#00A9FF" stroke-width="2"/>
</g>
</g>
<defs>
<clipPath id="clip0_1_906">
<rect width="1404" height="600" fill="white"/>
</clipPath>
</defs>
</svg>
