<?xml version="1.0" encoding="utf-8"?>
<svg width="2560px" height="1440px" viewBox="0 0 604 450" fill="none" xmlns="http://www.w3.org/2000/svg" style="width: 100%; height: 100%;" xmlns:bx="https://boxy-svg.com" preserveAspectRatio="none"><g clip-path="url(#clip0_35_2638)"><path d="M273.613 258.855C258.798 259.744 245.686 258.931 230.871 259.82C222.475 260.324 213.056 261.329 207.765 267.867C205.552 270.602 204.333 274.124 204.383 277.642C204.426 280.633 205.47 283.743 207.782 285.642C210.38 287.776 214.001 288.014 217.361 288.136C237.212 288.857 257.137 288.822 276.882 286.641C281.065 286.179 285.65 285.404 288.337 282.166C296.143 272.763 289.783 263.13 285.037 260.758C281.331 258.906 275.791 258.981 273.613 258.855Z" fill="#7B5FF1" stroke="#010101" stroke-width="1.5" stroke-linecap="round" stroke-linejoin="round"/><path d="M275.328 259.085C273.03 258.811 270.702 259.787 268.978 261.332C267.254 262.877 266.072 264.94 265.178 267.075C263.67 270.677 262.944 274.92 264.682 278.418C265.903 280.875 268.204 282.654 270.696 283.803C274.499 285.556 278.993 285.979 282.913 284.505C286.833 283.032 290.045 279.543 290.748 275.414C291.418 271.484 291.446 267.338 288.945 264.234C285.866 260.412 280.723 258.794 275.328 259.085Z" fill="white" stroke="#010101" stroke-width="1.5" stroke-linecap="round" stroke-linejoin="round"/><path d="M114.833 392.441C101.172 367.26 88.168 344.253 73.339 319.742C69.193 312.889 64.897 306.015 59.149 300.438C53.401 294.861 45.98 290.627 37.983 290.199C34.792 290.028 31.456 290.509 28.787 292.266C26.813 293.566 25.317 295.489 24.158 297.55C20.664 303.764 20.062 311.202 20.476 318.319C22.11 346.413 37.418 369.516 56.634 390.409C76.611 392.627 96.837 392.588 114.833 392.441Z" fill="#55D087" stroke="#010101" stroke-width="1.5" stroke-linecap="round" stroke-linejoin="round"/><path d="M33.3989 293.081C47.0419 327.953 64.1669 358.844 81.9079 391.821" stroke="#010101" stroke-width="1.5" stroke-linecap="round" stroke-linejoin="round"/><path d="M51.8301 334.02C54.4781 325.912 57.1261 317.805 59.7741 309.697" stroke="#010101" stroke-width="1.5" stroke-linecap="round" stroke-linejoin="round"/><path d="M74.127 377.502C78.858 370.252 82.701 362.423 85.543 354.246" stroke="#010101" stroke-width="1.5" stroke-linecap="round" stroke-linejoin="round"/><path d="M36.05 348.668C43.801 349.849 51.599 350.725 59.419 351.294" stroke="#010101" stroke-width="1.5" stroke-linecap="round" stroke-linejoin="round"/><path d="M181.288 391.84C168.45 361.557 154.385 319.264 132.234 287.919C128.826 283.096 125.037 278.441 120.249 274.983C115.461 271.526 109.549 269.341 103.673 269.933C97.971 270.508 92.715 273.68 88.953 278.003C85.19 282.325 82.825 287.726 81.423 293.282C72.877 327.161 100.579 373.721 108.54 392.499C133.675 391.601 157.167 393.122 181.288 391.839V391.84Z" fill="#55D087" stroke="#010101" stroke-width="1.5" stroke-linecap="round" stroke-linejoin="round"/><path d="M100.66 276.074C114.242 315.592 127.993 352.641 143.223 391.554" stroke="#010101" stroke-width="1.5" stroke-linecap="round" stroke-linejoin="round"/><path d="M118.154 323.469C123.044 313.984 128.22 304.646 133.673 295.473" stroke="#010101" stroke-width="1.5" stroke-linecap="round" stroke-linejoin="round"/><path d="M90.759 341.011C101.912 341.633 113.065 342.255 124.218 342.878" stroke="#010101" stroke-width="1.5" stroke-linecap="round" stroke-linejoin="round"/><path d="M40.8469 1.38501C143.438 1.38501 240.741 -0.274991 341.16 1.77301C343.861 14.969 343.369 15.782 347.462 29.871C249.086 31.02 47.5699 33.938 47.5699 33.938C47.5699 33.938 44.9229 21.302 40.8469 1.38501Z" fill="#010101" stroke="#010101" stroke-width="1.5" stroke-linecap="round" stroke-linejoin="round"/><path d="M347.462 29.871C347.462 29.871 395.954 206.805 398.8 220.198C293.357 218.857 186.792 218.814 80.239 219.981C67.32 156.98 57.54 94.752 47.345 32.861C85.273 35.645 347.462 29.871 347.462 29.871Z" fill="white" stroke="#010101" stroke-width="1.5" stroke-linecap="round" stroke-linejoin="round"/><path d="M139.434 37.744C155.845 50.017 160.121 69.52 150.133 87.414C141.618 102.67 124.367 111.801 116.832 127.564C112.616 136.383 111.888 146.393 109.85 155.953C107.811 165.513 103.861 175.476 95.5558 180.63C90.4928 183.772 74.6918 192.274 73.4988 186.436C65.5738 147.647 57.7958 96.621 47.5708 33.938C70.3318 32.649 93.7538 33.147 116.515 31.858C125.41 31.354 135.194 34.572 139.434 37.744Z" fill="#E3E3FF" stroke="#010101" stroke-width="1.5" stroke-linecap="round" stroke-linejoin="round"/><path d="M177.365 33.938C179.585 61.36 180.15 88.917 179.056 116.407C178.929 119.605 178.775 122.833 177.948 125.925C176.752 130.399 174.211 134.376 171.706 138.272C154.505 165.026 137.305 191.779 120.104 218.533" stroke="#010101" stroke-width="1.5" stroke-linecap="round" stroke-linejoin="round"/><path d="M139.434 219.446C153.294 199.887 165.65 179.263 176.356 157.815C180.264 149.987 184.031 141.929 191.363 135.707C229.691 136.795 268.019 137.883 306.007 140.281C297.686 166.018 290.091 191.99 283.233 218.155" stroke="#010101" stroke-width="1.5" stroke-linecap="round" stroke-linejoin="round"/><path d="M301.79 218.214C308.683 189.48 319.698 142.785 321.506 141.74C322.582 141.118 353.763 140.552 378.086 140.055" stroke="#010101" stroke-width="1.5" stroke-linecap="round" stroke-linejoin="round"/><path d="M190.83 33.387C192.782 62.267 194.028 91.194 194.416 120.067C231.595 119.86 269.563 123.286 306.275 124.768C294.202 94.583 282.681 61.516 273.314 30.385" stroke="#010101" stroke-width="1.5" stroke-linecap="round" stroke-linejoin="round"/><path d="M288.283 31.08C301.561 61.188 314.02 94.349 322.425 123.68C338.827 125.262 354.544 123.509 371.018 123.113" stroke="#010101" stroke-width="1.5" stroke-linecap="round" stroke-linejoin="round"/><path d="M210.271 150.258L196.824 149.991C196.195 149.979 195.511 149.983 195.015 150.37C194.451 150.809 194.314 151.59 194.217 152.298C193.767 155.591 193.316 158.884 192.866 162.177C192.787 162.757 192.732 163.421 193.127 163.852C193.446 164.201 193.958 164.278 194.427 164.335C199.99 165.006 205.552 165.677 211.115 166.348C211.512 161.187 211.909 156.026 210.272 150.258H210.271Z" stroke="#010101" stroke-width="1.5" stroke-linecap="round" stroke-linejoin="round"/><path d="M278.98 155.537C263.518 154.145 248.03 153.039 232.528 152.219C232.23 157.729 231.931 163.239 231.633 168.749C247.75 171.04 263.975 172.574 280.236 173.345C278.793 167.808 279.035 161.844 278.98 155.537Z" stroke="#010101" stroke-width="1.5" stroke-linecap="round" stroke-linejoin="round"/><path d="M258.356 207.177C259.377 199.469 260.869 191.824 263.306 184.079C268.501 183.435 273.739 183.128 278.974 183.159C278.618 183.375 278.532 183.845 278.48 184.259C277.432 192.671 276.385 201.084 275.337 209.496C269.682 210.325 263.856 209.968 258.357 207.178L258.356 207.177Z" stroke="#010101" stroke-width="1.5" stroke-linecap="round" stroke-linejoin="round"/><path d="M333.818 152.051L331.553 164.392C331.256 164.487 331.46 163.855 331.746 163.981C332.032 164.107 332.091 164.48 332.273 164.734C332.576 165.156 333.177 165.199 333.696 165.203C345.019 165.278 356.342 165.353 367.665 165.427C368.156 160.517 367.988 155.541 367.168 150.674C356.011 149.918 344.796 150.003 333.818 152.051Z" stroke="#010101" stroke-width="1.5" stroke-linecap="round" stroke-linejoin="round"/><path d="M268.003 44.773C264.206 45.743 260.381 46.599 256.533 47.341C258.394 57.687 262.088 67.78 262.296 78.29C266.655 76.908 271.106 75.815 275.61 75.02C273.976 69.174 272.342 63.328 270.709 57.482C270.043 55.101 269.376 52.712 269.01 50.266C268.74 48.462 268.635 46.629 268.004 44.774L268.003 44.773Z" stroke="#010101" stroke-width="1.5" stroke-linecap="round" stroke-linejoin="round"/><path d="M278.604 89.333C272.508 89.837 266.401 90.212 260.289 90.459C260.811 95.62 261.333 100.782 261.856 105.943C261.889 106.271 261.928 106.616 262.118 106.885C262.464 107.375 263.156 107.435 263.756 107.446C270.252 107.574 276.751 107.555 283.246 107.388C282.709 101.314 281.287 95.318 278.605 89.333H278.604Z" stroke="#010101" stroke-width="1.5" stroke-linecap="round" stroke-linejoin="round"/><path d="M223.337 41.718C216.356 39.884 208.333 43.496 205.078 49.938C204.218 51.64 203.664 53.526 203.702 55.433C203.747 57.692 204.609 59.848 204.981 62.077C205.671 66.211 204.661 70.411 204.192 74.577C203.723 78.742 203.921 83.332 206.572 86.578C208.32 88.718 210.912 89.984 213.51 90.926C222.872 94.325 233.443 94.272 242.771 90.781C244.509 90.131 246.248 89.336 247.546 88.01C250.387 85.109 250.401 80.407 249.163 76.54C247.924 72.673 245.659 69.196 244.429 65.327C243.146 61.29 243 56.864 241.007 53.126C238.051 47.581 232.04 44.005 223.337 41.718Z" fill="#55D087" stroke="#010101" stroke-width="1.5" stroke-linecap="round" stroke-linejoin="round"/><path d="M240.98 102.439C234.426 102.231 227.873 102.024 221.319 101.816C218.281 101.72 215.174 101.633 212.277 102.55C212.675 105.407 213.073 108.265 213.471 111.122C213.503 111.35 213.546 111.6 213.723 111.748C213.892 111.889 214.131 111.894 214.351 111.892C223.738 111.826 233.125 111.76 242.511 111.694C243.007 108.412 242.606 105 240.98 102.439Z" stroke="#010101" stroke-width="1.5" stroke-linecap="round" stroke-linejoin="round"/><path d="M307.192 50.625C312.779 64.731 317.342 79.242 320.835 94.006C324.98 92.871 329.124 91.736 333.269 90.601C329.899 75.748 324.857 61.275 318.269 47.543C314.374 47.166 310.685 49.154 307.192 50.625Z" stroke="#010101" stroke-width="1.5" stroke-linecap="round" stroke-linejoin="round"/><path d="M354.931 100.144C350.326 99.96 345.702 100.263 341.16 101.047C341.853 101.785 342.072 102.839 342.222 103.84C342.796 107.686 342.775 111.689 344.229 115.296C349.087 114.949 353.951 114.677 358.817 114.483C357.598 109.927 356.378 105.371 354.931 100.144Z" stroke="#010101" stroke-width="1.5" stroke-linecap="round" stroke-linejoin="round"/><path d="M373.532 175.77C368.007 175.662 358 175.351 358.09 176.046C358.885 182.199 359.413 190.177 359.8 196.369C366.515 195.403 370.971 195.248 377.754 195.299C376.459 190.863 375.923 182.163 373.532 175.77Z" stroke="#010101" stroke-width="1.5" stroke-linecap="round" stroke-linejoin="round"/><path d="M330.835 174.26C327.857 173.97 324.879 173.68 321.901 173.39C321.312 177.716 320.577 181.123 320.262 186.019C322.832 186.441 326.156 186.764 329.486 186.879C329.745 182.842 330.405 178.83 330.834 174.259L330.835 174.26Z" stroke="#010101" stroke-width="1.5" stroke-linecap="round" stroke-linejoin="round"/><path d="M163.105 218.055C165.002 205.495 167.89 191.487 178.469 184.456C184.445 180.484 191.896 179.519 199.065 179.206C210.063 178.727 221.117 179.537 231.928 181.614C234.613 182.13 237.373 182.763 239.569 184.393C242.667 186.692 244.128 190.593 244.874 194.379C246.256 201.386 245.705 208.764 243.298 215.488C242.959 216.435 242.546 217.42 241.736 218.015C240.89 218.637 239.774 218.716 238.726 218.771C213.757 220.074 188.741 220.471 163.106 218.055H163.105Z" fill="#55D087" stroke="#010101" stroke-width="1.5" stroke-linecap="round" stroke-linejoin="round"/><path d="M3.07886 240.556C6.12386 242.992 9.16886 245.428 12.2139 247.864Z" fill="#010101"/><path d="M449.787 58.161C447.416 55.112 447.351 49.114 449.75 46.087C452.149 43.06 456.054 40.515 459.669 39.154C466.233 36.683 473.23 35.077 480.231 35.5C501.756 36.8 507.64 56.766 508.339 62.641C509.017 68.341 506.751 73.955 504.226 79.109C501.701 84.263 498.82 89.419 498.384 95.411C501.607 93.317 505.745 95.898 508.689 98.369C513.605 102.495 518.542 106.641 522.797 111.446C528.022 117.346 532.128 124.136 536.124 130.929C539.594 136.828 543.005 142.761 546.356 148.728C548.066 151.773 549.79 154.912 550.31 158.366C550.661 160.701 550.423 163.17 549.328 165.262C546.673 170.333 539.605 171.731 534.277 169.64C528.949 167.549 525.084 162.889 521.888 158.14C517.991 152.349 514.725 146.161 511.468 139.987C505.41 128.504 499.352 117.021 493.293 105.537C492.043 103.167 490.976 99.808 494.338 98.143C488.649 98.161 483.526 94.569 479.772 90.294C476.018 86.019 473.23 80.975 469.54 76.644C467.042 73.712 461.592 73.338 449.787 58.161Z" fill="#010101" stroke="#010101" stroke-width="1.5" stroke-linecap="round" stroke-linejoin="round"/><path d="M594.655 79.782C593.285 83.284 591.914 86.786 590.544 90.288Z" fill="#010101"/><path d="M246.14 398.787C247.509 401.68 248.878 404.574 250.247 407.467Z" fill="#010101"/><path d="M488.721 411.375C491.94 415.131 495.158 418.886 498.516 422.924C498.455 431.627 498.522 440.331 498.717 449.032C513.026 435.737 527.335 422.442 541.644 409.147C535.691 404.103 530.414 398.263 525.996 391.831C524.607 389.809 522.6 387.438 520.237 388.097C519.617 388.27 519.075 388.645 518.547 389.013C510.409 394.686 502.27 400.359 488.721 411.375Z" fill="#7B5FF1" stroke="#010101" stroke-width="1.5" stroke-linecap="round" stroke-linejoin="round"/><path d="M352.598 366.621C348.977 369.99 345.356 373.36 341.46 376.88C332.762 377.175 324.068 377.598 315.382 378.148C329.251 391.901 343.12 405.655 356.989 419.408C365.979 411.015 371.817 403.994 377.145 397.158C377.541 396.65 364.159 379.708 352.598 366.621Z" fill="#7B5FF1" stroke="#010101" stroke-width="1.5" stroke-linecap="round" stroke-linejoin="round"/><path d="M561.789 221.309C562.655 238.732 562.618 257.936 551.39 271.286C544.275 279.746 533.736 284.425 523.467 288.516C503.081 296.637 482.214 303.551 461.011 309.21C459.932 309.498 458.828 309.794 457.914 310.435C456.653 311.32 455.909 312.75 455.198 314.117C436.883 349.358 401.948 389.762 386.134 408.313C368.879 389.995 358.753 379.136 341.498 360.818C357.235 340.262 372.972 319.707 388.709 299.151C401.548 282.381 414.869 265.179 433.145 254.595C451.399 244.024 472.889 241.031 493.626 237.171C516.116 232.985 538.374 227.551 561.789 221.309Z" fill="#010101" stroke="#010101" stroke-width="1.5" stroke-linecap="round" stroke-linejoin="round"/><path d="M455.296 245.753C423.576 250.053 401.871 257.996 394.747 268.191C387.335 278.799 383.488 289.643 388.094 301.737C392.7 313.83 400.805 324.215 408.793 334.397C432.866 365.081 456.939 395.764 482.086 426.325C490.14 420.426 498.195 414.528 506.249 408.629C517.157 400.641 528.209 392.515 536.575 381.894C510.282 356.025 483.989 330.156 457.696 304.286C455.594 302.218 453.448 300.088 452.21 297.412C451.082 294.975 450.785 292.244 450.611 289.564C449.689 275.392 451.825 261.029 455.296 245.753Z" fill="#010101" stroke="#010101" stroke-width="1.5" stroke-linecap="round" stroke-linejoin="round"/><path d="M453.143 317.272C478.669 341.573 504.195 365.875 529.721 390.176" stroke="white" stroke-width="1.5" stroke-linecap="round" stroke-linejoin="round"/><path d="M379.744 401.524C402.795 371.492 426.672 337.863 450.848 306.366C452.477 304.244 454.158 302.088 456.399 300.626C458.514 299.246 460.998 298.571 463.432 297.896C479.271 293.503 494.912 288.286 509.893 281.523C515.604 278.945 521.295 276.09 525.943 271.886C537.655 261.292 540.724 244.077 540.235 228.292" stroke="white" stroke-width="1.5" stroke-linecap="round" stroke-linejoin="round"/><path d="M454.189 244.897C439.791 248.235 427.004 256.737 416.415 267.048C405.826 277.359 398.257 288.114 388.709 299.151" stroke="white" stroke-width="1.5" stroke-linecap="round" stroke-linejoin="round"/><path d="M464.309 309.336C461.846 309.892 459.382 310.448 456.919 311.004C448.187 327.744 437.688 342.079 427.113 357.721" stroke="white" stroke-width="1.5" stroke-linecap="round" stroke-linejoin="round"/><path d="M457.305 119.705C462.148 155.041 462.32 207.205 465.055 242.766C473.399 240.427 482.256 239.444 489.966 235.488C497.676 231.532 501.185 230.113 505.594 222.653C509.585 215.901 511.202 207.922 511.113 200.079C511.024 192.236 509.301 184.491 506.981 176.999C503.045 164.282 497.073 151.716 486.949 143.072C476.825 134.428 468.565 108.199 457.304 119.706L457.305 119.705Z" fill="#E3E3FF" stroke="#010101" stroke-width="1.5" stroke-linecap="round" stroke-linejoin="round"/><path d="M459.899 106.285C459.899 106.285 482.186 100.094 498.838 99.122C501.84 103.364 536.055 145.879 561.605 221.064C547.2 237.589 479.91 252.538 479.369 245.97C478.116 230.774 470.965 177.974 462.347 153.441C461.412 150.78 460.411 148.142 459.342 145.536C455.619 115.818 459.9 106.286 459.9 106.286L459.899 106.285Z" fill="#7B5FF1" stroke="#010101" stroke-width="1.5" stroke-linecap="round" stroke-linejoin="round"/><path d="M459.899 145.707C465.722 145.287 472.596 145.012 476.312 144.372" stroke="#010101" stroke-width="1.5" stroke-linecap="round" stroke-linejoin="round"/><path d="M482.958 225.28C482.29 225.402 481.655 225.704 481.138 226.145C480.765 227.26 481.512 228.635 482.665 228.865C483.818 229.095 485.062 228.036 484.957 226.865C484.853 225.694 483.356 224.878 482.958 225.281V225.28Z" stroke="#010101" stroke-width="1.5" stroke-linecap="round" stroke-linejoin="round"/><path d="M479.099 197.509C478.436 197.039 477.399 197.382 477.042 198.112C476.685 198.842 476.966 199.785 477.588 200.307C477.822 200.504 478.102 200.651 478.403 200.709C479.112 200.845 479.888 200.412 480.144 199.737C480.4 199.062 480.106 198.223 479.099 197.509Z" stroke="#010101" stroke-width="1.5" stroke-linecap="round" stroke-linejoin="round"/><path d="M473.582 170.301C473.119 170.254 472.644 170.208 472.194 170.323C471.744 170.438 471.313 170.75 471.19 171.199C471.082 171.595 471.23 172.021 471.46 172.361C471.98 173.128 473.027 173.568 473.882 173.211C474.737 172.854 475.128 171.601 473.582 170.301Z" stroke="#010101" stroke-width="1.5" stroke-linecap="round" stroke-linejoin="round"/><path d="M452.867 51.69C449.404 53.501 450.533 57.682 449.194 61.423C447.223 66.925 445.217 72.545 443.072 77.206C444.972 78.458 447.013 78.646 448.384 79.023C448.498 82.213 449.573 89.18 452.528 91.52C456.618 94.76 460.481 94.826 465.576 93.286C466.41 102.968 466.595 103.157 466.595 103.157C466.595 103.157 484.194 104.069 490.767 99.913C485.16 93.361 476.077 87.309 474.88 78.179C478.136 77.16 480.386 74.763 481.043 71.415C481.701 68.067 479.814 63.677 476.571 62.616C473.328 61.555 472.524 65.673 467.48 64.022C457.583 60.698 457.055 58.587 452.869 51.69H452.867Z" fill="white" stroke="#010101" stroke-width="1.5" stroke-linecap="round" stroke-linejoin="round"/><path d="M465.095 93.423L471.931 91.448" stroke="#010101" stroke-width="1.5" stroke-linecap="round" stroke-linejoin="round"/><path d="M492.653 122.562C491.34 128.671 488.499 136.143 481.99 143.567C464.844 163.125 456.926 171.328 434.916 185.187C428.505 189.224 421.789 193.02 414.407 194.724C406.295 196.596 397.781 195.837 389.644 194.079C376.836 191.312 364.685 186.139 352.767 180.691C336.429 173.221 327.594 169.533 311.823 160.929C317.02 149.265 322.217 137.601 330.606 124.791C355.454 138.334 375.8 146.582 403.787 155.902C423.072 139.454 447.381 121.661 465.323 106.358" fill="#7B5FF1"/><path d="M492.653 122.562C491.34 128.671 488.499 136.143 481.99 143.567C464.844 163.125 456.926 171.328 434.916 185.187C428.505 189.224 421.789 193.02 414.407 194.724C406.295 196.596 397.781 195.837 389.644 194.079C376.836 191.312 364.685 186.139 352.767 180.691C336.429 173.221 327.594 169.533 311.823 160.929C317.02 149.265 322.217 137.601 330.606 124.791C355.454 138.334 375.8 146.582 403.787 155.902C423.072 139.454 447.381 121.661 465.323 106.358" stroke="#010101" stroke-width="1.5" stroke-linecap="round" stroke-linejoin="round"/><path d="M281.932 48.058C237.021 51.28 248.516 101.259 257.156 118.391C262.552 129.09 273.361 147.943 279.681 157.037C281.769 160.041 283.856 163.045 285.944 166.049C292.047 155.214 299.19 144.087 305.545 132.526C311.797 121.152 317.347 109.161 319.387 96.343C320.726 87.933 319.315 45.376 281.932 48.058ZM305.167 88.744C303.426 95.226 298.044 100.523 291.62 102.467C285.196 104.411 277.935 103.067 272.439 99.214C269.633 97.247 267.228 94.608 265.933 91.435C264.918 88.949 264.612 86.213 264.754 83.531C265.12 76.589 268.43 69.694 273.982 65.51C283.562 58.29 295.154 64.751 300.522 69.36C305.614 73.732 306.908 82.262 305.167 88.744Z" fill="#FF8B37" stroke="#010101" stroke-width="1.5" stroke-linecap="round" stroke-linejoin="round"/><path d="M459.899 106.285C461.153 102.398 460.471 99.844 461.211 99.74C477.383 97.462 493.596 90.674 494.541 91.695C496.118 93.401 496.967 95.483 498.839 99.122C493.891 100.879 468.449 106.749 459.9 106.285H459.899Z" fill="#7B5FF1" stroke="#010101" stroke-width="1.5" stroke-linecap="round" stroke-linejoin="round"/><path d="M325.078 133.825C316.181 127.067 319.138 129.888 310.535 122.893C310.427 122.852 308.469 126.932 308.208 127.547C308.177 127.62 308.14 128.164 310.903 130.234C308.937 128.753 306.764 126.312 296.603 119.814C295.636 119.196 294.512 118.452 293.558 118.901C292.582 119.361 292.441 120.853 292.972 121.926C293.551 123.097 298.832 127.494 304.282 131.5C297.329 126.174 298.892 126.941 291.415 122.568C290.177 121.844 288.527 121.166 287.599 122.129C285.701 124.709 290.706 127.951 294.578 130.546C296.796 132.033 296.664 131.969 302.027 135.316C296.555 132.183 296.734 132.069 291.256 128.95C290.227 128.364 289.122 127.76 288.009 127.846C286.896 127.932 285.872 129.04 286.261 130.19C286.508 130.922 287.201 131.392 287.84 131.797C293.766 135.548 293.355 135.953 299.281 139.703C294.942 137.044 295.944 137.541 291.264 135.811C289.874 135.297 287.917 135.088 287.529 136.503C287.17 137.81 288.595 139.007 289.796 139.714C301.624 146.672 303.245 146.484 315.073 153.442L325.078 133.825Z" fill="white" stroke="#010101" stroke-width="1.5" stroke-linecap="round" stroke-linejoin="round"/><path d="M495.35 92.695C496.491 91.783 497.651 90.86 498.994 90.287C500.337 89.714 501.913 89.526 503.252 90.109C504.722 90.749 505.694 92.232 506.086 93.786C506.21 94.278 506.283 94.807 506.12 95.288C505.911 95.904 505.36 96.329 504.837 96.716C503.941 97.38 503.044 98.043 502.148 98.707C501.816 98.953 501.465 99.206 501.055 99.257C500.253 99.356 499.594 98.67 499.081 98.046C497.707 96.375 496.263 94.518 495.35 92.695Z" fill="white" stroke="#010101" stroke-width="1.5" stroke-linecap="round" stroke-linejoin="round"/></g><defs><clipPath id="clip0_35_2638"><rect width="603.442" height="449.781" fill="white"/></clipPath><bx:export><bx:file format="svg" path="Sin título.svg"/></bx:export></defs></svg>