<svg width="125" height="125" viewBox="0 0 125 125" fill="none" xmlns="http://www.w3.org/2000/svg">
<path d="M71.5104 109.375C70.5947 110.954 69.2804 112.264 67.6991 113.175C66.1178 114.086 64.3249 114.565 62.5 114.565C60.6751 114.565 58.8822 114.086 57.3009 113.175C55.7196 112.264 54.4053 110.954 53.4896 109.375M93.75 41.6667C93.75 33.3787 90.4576 25.4302 84.5971 19.5697C78.7366 13.7091 70.788 10.4167 62.5 10.4167C54.212 10.4167 46.2634 13.7091 40.4029 19.5697C34.5424 25.4302 31.25 33.3787 31.25 41.6667C31.25 78.1251 15.625 88.5418 15.625 88.5418H109.375C109.375 88.5418 93.75 78.1251 93.75 41.6667Z" stroke="white" stroke-width="4" stroke-linecap="round" stroke-linejoin="round"/>
</svg>
