<?xml version="1.0"?>
<svg width="224" height="174" xmlns="http://www.w3.org/2000/svg" xmlns:svg="http://www.w3.org/2000/svg">
 <defs>
  <clipPath id="clip0_35_3261">
   <rect fill="white" height="173.14" id="svg_1" width="223.43"/>
  </clipPath>
 </defs>
 <g class="layer">
  <title>Layer 1</title>
  <g clip-path="url(#clip0_35_3261)" id="svg_2">
   <path d="m81.1,144.07c-5.48,-12.4 -10.96,-24.8 -16.45,-37.2c-3.83,-8.68 -8.1,-17.88 -16.16,-22.89c-4.35,-2.71 -10.41,-3.79 -14.38,-0.55c-2.79,2.27 -3.81,6.04 -4.42,9.59c-3.04,17.69 0.48,36.44 10.76,52.14c13.73,0.61 28.34,-0.51 40.65,-1.09z" fill="#55D087" id="svg_3" stroke="#010101" stroke-linecap="round" stroke-linejoin="round" stroke-width="1.5"/>
   <path d="m40.14,87.62c4.34,18.83 9.78,37.42 16.29,55.62" id="svg_4" stroke="#010101" stroke-linecap="round" stroke-linejoin="round" stroke-width="1.5"/>
   <path d="m48.2,145.44c-5.13,-10.07 -10.28,-20.16 -16.48,-29.61c-4.47,-6.8 -9.86,-13.55 -17.45,-16.47c-2.68,-1.04 -5.79,-1.52 -8.37,-0.26c-2.92,1.43 -4.45,4.76 -4.93,7.98c-1.04,6.99 1.8,13.95 5.03,20.24c3.06,5.94 6.53,11.67 11.69,17.6c12.38,0.16 21.15,0.4 30.51,0.52l0,0z" fill="#55D087" id="svg_5" stroke="#010101" stroke-linecap="round" stroke-linejoin="round" stroke-width="1.5"/>
   <path d="m9.18,101.17c6.52,14.78 14.08,29.1 22.61,42.82l-22.61,-42.82z" fill="#55D087" id="svg_6"/>
   <path d="m9.18,101.17c6.52,14.78 14.08,29.1 22.61,42.82" id="svg_7" stroke="#010101" stroke-linecap="round" stroke-linejoin="round" stroke-width="1.5"/>
   <path d="m151.04,68.41c0.73,-12.33 2.38,-19.82 2,-32.17c-0.53,-17.38 -7.03,-34.21 -27.85,-35.43c-8.02,-0.46 -16.54,1.65 -22.51,7.02c-7.05,6.34 -9.07,16.45 -10.26,25.85c-1.42,11.23 -2.24,22.54 -1.23,33.42c2.6,0.11 5.96,0.47 9.39,-0.14c-0.2,-11.27 -0.1,-22.81 1.78,-33.93c0.99,-5.87 2.47,-12.07 6.82,-16.14c4.47,-4.19 11.05,-5.2 17.18,-5.18c6.39,0.02 14.53,5.53 16.72,18.69c2.65,15.9 -1.35,37.39 -0.21,38.2c0.26,0.18 5.95,0.82 8.17,-0.19l0,0z" fill="#007bff" id="svg_8" stroke="#010101" stroke-linecap="round" stroke-linejoin="round" stroke-width="1.5"/>
   <path d="m65.05,82.38c-0.83,16.65 -1.03,33.33 -0.61,50c0.11,4.33 0.39,9.02 3.19,12.32c3.15,3.71 8.47,4.52 13.31,4.99c26.76,2.57 55.81,4.59 82.46,1.07c3.78,-0.5 7.75,-1.15 10.72,-3.54c5.32,-4.29 4.61,-12.23 4.98,-19.05c0.75,-13.64 0.76,-41.98 -0.59,-49.79c-0.6,-3.51 -1.46,-7.11 -3.66,-9.9c-4.57,-5.82 -13.09,-6.25 -20.48,-6.01c-23.04,0.72 -53.6,-0.32 -75.28,1.05c-7.69,0.49 -13.77,8.26 -14.04,18.86z" fill="#007bff" id="svg_9" stroke="#010101" stroke-linecap="round" stroke-linejoin="round" stroke-width="1.5" transform="matrix(1 0 0 1 0 0)"/>
   <path d="m118.69,119.91c-3.57,-1.19 -6.08,-4.82 -6.28,-8.57c-0.2,-3.76 1.76,-7.48 4.76,-9.74c3,-2.26 6.94,-3.13 10.67,-2.7c1.74,0.2 3.47,0.67 4.96,1.6c1.42,0.89 2.58,2.17 3.41,3.62c1.68,2.91 2.05,6.58 0.81,9.7c-1.05,2.64 -3.28,4.81 -6.01,5.83c-0.89,0.33 -1.46,1.22 -1.43,2.17c0.16,4.41 -0.18,12.44 -0.31,15.16c-0.02,0.51 -0.45,0.92 -0.97,0.91l-6.65,-0.13c-0.5,-0.01 -0.91,-0.41 -0.93,-0.92l-0.6,-14.11c-0.05,-0.99 -0.02,-2.35 -1.43,-2.82l0,0z" fill="white" id="svg_10" stroke="#010101" stroke-linecap="round" stroke-linejoin="round" stroke-width="1.5"/>
   <path d="m3.89,68.33l20.7,-0.77" id="svg_11" stroke="#010101" stroke-linecap="round" stroke-linejoin="round" stroke-width="1.5"/>
   <path d="m19.2,20.04c3.14,3.59 6.28,7.18 9.41,10.76" id="svg_12" stroke="#010101" stroke-linecap="round" stroke-linejoin="round" stroke-width="1.5"/>
   <path d="m63.38,5.97c-0.11,5.11 -0.21,10.21 -0.31,15.32" id="svg_13" stroke="#010101" stroke-linecap="round" stroke-linejoin="round" stroke-width="1.5"/>
   <path d="m220.9,107.48c-2.6,-6.05 -8.15,-10.84 -14.61,-12.16c-9.33,-1.91 -25.74,2.46 -17.8,24.33c-14.31,15.5 -30.46,27.1 -42.48,40.12c3.19,4.25 6.93,8.87 9.75,12.62c1.22,-0.88 3.43,-2.61 4.65,-3.5c-1.86,-2.64 -3.71,-5.28 -5.56,-7.92c1.73,-1.54 3.45,-3.07 5.18,-4.6c1.69,1.69 3.15,3.61 4.34,5.69c0.69,-0.86 3.57,-2.84 4.59,-3.28c-1.27,-1.96 -2.9,-3.71 -3.99,-6.13c10.91,-9.56 20.37,-18.13 29.73,-24.51c2.41,2.37 5.06,4.58 8.17,5.92c3.1,1.35 6.72,1.76 9.88,0.55c3.52,-1.36 6.06,-4.54 7.65,-7.95c2.78,-5.97 3.09,-13.13 0.5,-19.18zm-7.39,14.5c-1.2,2.39 -3.67,4.28 -6.34,4.16c-1.27,-0.06 -2.49,-0.56 -3.61,-1.18c-4.25,-2.37 -7.33,-6.74 -8.13,-11.54c-0.34,-2.02 -0.58,-4.88 1.06,-6.82c3.51,-4.16 11.85,-3.88 16.41,2.15c1.86,2.45 2.67,9.15 0.61,13.23z" fill="#FF8B37" id="svg_14" stroke="#010101" stroke-linecap="round" stroke-linejoin="round" stroke-width="1.5"/>
  </g>
 </g>
</svg>