<svg width="54" height="54" viewBox="0 0 54 54" fill="none" xmlns="http://www.w3.org/2000/svg">
<path d="M27 18C30.7279 18 33.75 14.9779 33.75 11.25C33.75 7.52208 30.7279 4.5 27 4.5C23.2721 4.5 20.25 7.52208 20.25 11.25C20.25 14.9779 23.2721 18 27 18ZM27 18V49.5M27 49.5C21.0326 49.5 15.3097 47.1295 11.0901 42.9099C6.87053 38.6903 4.5 32.9674 4.5 27H11.25M27 49.5C32.9674 49.5 38.6903 47.1295 42.9099 42.9099C47.1295 38.6903 49.5 32.9674 49.5 27H42.75" stroke="white" stroke-width="4" stroke-linecap="round" stroke-linejoin="round"/>
</svg>
