<svg width="38" height="38" viewBox="0 0 38 38" fill="none" xmlns="http://www.w3.org/2000/svg">
<path d="M27.7084 10.2917H27.7242M11.0834 3.16675H26.9167C31.2889 3.16675 34.8334 6.71116 34.8334 11.0834V26.9167C34.8334 31.289 31.2889 34.8334 26.9167 34.8334H11.0834C6.7111 34.8334 3.16669 31.289 3.16669 26.9167V11.0834C3.16669 6.71116 6.7111 3.16675 11.0834 3.16675ZM25.3334 18.0026C25.5288 19.3203 25.3037 20.6661 24.6901 21.8485C24.0766 23.031 23.1058 23.9898 21.9159 24.5887C20.726 25.1876 19.3776 25.3961 18.0623 25.1845C16.7471 24.9728 15.5321 24.3519 14.5902 23.4099C13.6482 22.468 13.0273 21.253 12.8156 19.9378C12.604 18.6225 12.8125 17.2741 13.4114 16.0842C14.0103 14.8943 14.9691 13.9235 16.1516 13.31C17.334 12.6964 18.6798 12.4713 19.9975 12.6667C21.3416 12.8661 22.586 13.4924 23.5469 14.4532C24.5077 15.4141 25.134 16.6585 25.3334 18.0026Z" stroke="white" stroke-width="3" stroke-linecap="round" stroke-linejoin="round"/>
</svg>
