<svg width="54" height="54" viewBox="0 0 54 54" fill="none" xmlns="http://www.w3.org/2000/svg">
<path d="M15.75 24.75V15.75C15.75 12.7663 16.9353 9.90483 19.045 7.79505C21.1548 5.68526 24.0163 4.5 27 4.5C29.9837 4.5 32.8452 5.68526 34.955 7.79505C37.0647 9.90483 38.25 12.7663 38.25 15.75V24.75M11.25 24.75H42.75C45.2353 24.75 47.25 26.7647 47.25 29.25V45C47.25 47.4853 45.2353 49.5 42.75 49.5H11.25C8.76472 49.5 6.75 47.4853 6.75 45V29.25C6.75 26.7647 8.76472 24.75 11.25 24.75Z" stroke="white" stroke-width="4" stroke-linecap="round" stroke-linejoin="round"/>
</svg>
