<svg width="125" height="125" viewBox="0 0 125 125" fill="none" xmlns="http://www.w3.org/2000/svg">
<path d="M83.3334 83.3333V15.625H5.20837V83.3333H83.3334ZM83.3334 83.3333H119.792V57.2917L104.167 41.6667H83.3334V83.3333ZM41.6667 96.3542C41.6667 103.545 35.8371 109.375 28.6459 109.375C21.4547 109.375 15.625 103.545 15.625 96.3542C15.625 89.163 21.4547 83.3333 28.6459 83.3333C35.8371 83.3333 41.6667 89.163 41.6667 96.3542ZM109.375 96.3542C109.375 103.545 103.545 109.375 96.3542 109.375C89.163 109.375 83.3334 103.545 83.3334 96.3542C83.3334 89.163 89.163 83.3333 96.3542 83.3333C103.545 83.3333 109.375 89.163 109.375 96.3542Z" stroke="#001F3F" stroke-width="4" stroke-linecap="round" stroke-linejoin="round"/>
</svg>
